<svg width="250" height="32" viewBox="0 0 250 32" fill="none" xmlns="http://www.w3.org/2000/svg">
<path d="M25.251 19.691C25.2797 23.4463 24.2047 26.3847 22.026 28.506C19.8473 30.5987 16.8517 31.645 13.039 31.645C10.7743 31.645 8.68167 31.129 6.761 30.097C4.869 29.065 3.364 27.603 2.246 25.711C1.128 23.819 0.569 21.6403 0.569 19.175V12.897C0.569 10.4603 1.09933 8.296 2.16 6.404C3.24933 4.512 4.72567 3.05 6.589 2.018C8.481 0.957332 10.588 0.426999 12.91 0.426999C16.7227 0.426999 19.704 1.47333 21.854 3.566C24.0327 5.63 25.1363 8.554 25.165 12.338H17.425C17.3963 10.876 16.995 9.74367 16.221 8.941C15.4757 8.13833 14.372 7.737 12.91 7.737C11.5913 7.737 10.502 8.15267 9.642 8.984C8.782 9.81533 8.352 10.9907 8.352 12.51V19.519C8.352 21.0383 8.79633 22.228 9.685 23.088C10.6023 23.9193 11.7203 24.335 13.039 24.335C16.049 24.335 17.554 22.787 17.554 19.691H25.251ZM58.8441 31H30.6361L44.7401 0.426999L58.8441 31ZM33.1301 29.409H56.3501L44.7401 4.211L33.1301 29.409ZM88.9542 31H65.9492V1.072H77.6022C80.0962 1.072 82.1315 1.51633 83.7082 2.405C85.2562 3.265 86.4602 4.44033 87.3202 5.931C88.1802 7.42167 88.6102 9.07 88.6102 10.876C88.6102 13.112 87.9222 15.1187 86.5462 16.896C85.1702 18.6447 83.4358 19.8057 81.3432 20.379L88.9542 31ZM68.6582 2.663L80.3542 19.003C82.2748 18.6017 83.8658 17.6413 85.1272 16.122C86.3885 14.6027 87.0192 12.854 87.0192 10.876C87.0192 9.29933 86.6322 7.866 85.8582 6.576C85.0842 5.286 83.9948 4.297 82.5902 3.609C81.3288 2.97833 79.6805 2.663 77.6452 2.663H68.6582ZM67.5402 3.695V19.132H78.5912L67.5402 3.695ZM67.5402 29.409H85.9442L79.6662 20.68L78.3332 20.723H67.5402V29.409ZM108.615 31.774C104.459 31.774 101.248 30.7993 98.9832 28.85C96.7472 26.872 95.6436 23.9193 95.6722 19.992H102.681C102.653 21.626 103.14 22.873 104.143 23.733C105.147 24.593 106.551 25.023 108.357 25.023C109.848 25.023 111.023 24.7793 111.883 24.292C112.743 23.8047 113.173 23.0593 113.173 22.056C113.173 21.2247 112.729 20.6227 111.84 20.25C110.98 19.8773 110.12 19.6193 109.26 19.476C108.4 19.304 107.87 19.2037 107.669 19.175C105.462 18.745 103.556 18.229 101.95 17.627C100.345 16.9963 98.9976 16.0503 97.9082 14.789C96.8189 13.5277 96.2742 11.865 96.2742 9.801C96.2742 7.737 96.8189 5.98833 97.9082 4.555C98.9976 3.093 100.445 2.00367 102.251 1.287C104.086 0.570332 106.078 0.211999 108.228 0.211999C110.837 0.211999 113.087 0.699332 114.979 1.674C116.9 2.64867 118.405 4.125 119.494 6.103C120.039 7.049 120.369 7.96633 120.483 8.855C120.598 9.715 120.655 10.5607 120.655 11.392H113.646C113.646 9.844 113.231 8.71166 112.399 7.995C111.568 7.24966 110.278 6.877 108.529 6.877C107.125 6.877 106.035 7.12066 105.261 7.608C104.487 8.09533 104.1 8.75467 104.1 9.586C104.1 10.5033 104.616 11.177 105.648 11.607C106.68 12.037 107.985 12.424 109.561 12.768C112.141 13.284 114.148 13.7857 115.581 14.273C117.043 14.7317 118.305 15.563 119.365 16.767C120.426 17.971 120.956 19.6623 120.956 21.841C120.956 23.905 120.383 25.6823 119.236 27.173C118.09 28.6637 116.57 29.8103 114.678 30.613C112.815 31.387 110.794 31.774 108.615 31.774ZM129.48 1.072H151.281V8.64H137.306V12.424H148.916V19.605H137.306V23.432H151.281V31H129.48V1.072ZM184.444 31H161.439V1.072H173.092C175.586 1.072 177.622 1.51633 179.198 2.405C180.746 3.265 181.95 4.44033 182.81 5.931C183.67 7.42167 184.1 9.07 184.1 10.876C184.1 13.112 183.412 15.1187 182.036 16.896C180.66 18.6447 178.926 19.8057 176.833 20.379L184.444 31ZM164.148 2.663L175.844 19.003C177.765 18.6017 179.356 17.6413 180.617 16.122C181.879 14.6027 182.509 12.854 182.509 10.876C182.509 9.29933 182.122 7.866 181.348 6.576C180.574 5.286 179.485 4.297 178.08 3.609C176.819 2.97833 175.171 2.663 173.135 2.663H164.148ZM163.03 3.695V19.132H174.081L163.03 3.695ZM163.03 29.409H181.434L175.156 20.68L173.823 20.723H163.03V29.409ZM216.274 31H193.269V1.072H204.922C207.416 1.072 209.452 1.51633 211.028 2.405C212.576 3.265 213.78 4.44033 214.64 5.931C215.5 7.42167 215.93 9.07 215.93 10.876C215.93 13.112 215.242 15.1187 213.866 16.896C212.49 18.6447 210.756 19.8057 208.663 20.379L216.274 31ZM195.978 2.663L207.674 19.003C209.595 18.6017 211.186 17.6413 212.447 16.122C213.709 14.6027 214.339 12.854 214.339 10.876C214.339 9.29933 213.952 7.866 213.178 6.576C212.404 5.286 211.315 4.297 209.91 3.609C208.649 2.97833 207.001 2.663 204.965 2.663H195.978ZM194.86 3.695V19.132H205.911L194.86 3.695ZM194.86 29.409H213.264L206.986 20.68L205.653 20.723H194.86V29.409ZM249.825 31H221.617L235.721 0.426999L249.825 31ZM224.111 29.409H247.331L235.721 4.211L224.111 29.409Z" fill="#5941BB"/>
</svg>
