<svg width="372" height="48" viewBox="0 0 372 48" fill="none" xmlns="http://www.w3.org/2000/svg">
<path d="M37.048 29.168C37.0907 34.7573 35.4907 39.1307 32.248 42.288C29.0053 45.4027 24.5467 46.96 18.872 46.96C15.5013 46.96 12.3867 46.192 9.528 44.656C6.712 43.12 4.472 40.944 2.808 38.128C1.144 35.312 0.312 32.0693 0.312 28.4V19.056C0.312 15.4293 1.10133 12.208 2.68 9.392C4.30133 6.576 6.49867 4.4 9.272 2.864C12.088 1.28533 15.224 0.495998 18.68 0.495998C24.3547 0.495998 28.792 2.05333 31.992 5.168C35.2347 8.24 36.8773 12.592 36.92 18.224H25.4C25.3573 16.048 24.76 14.3627 23.608 13.168C22.4987 11.9733 20.856 11.376 18.68 11.376C16.7173 11.376 15.096 11.9947 13.816 13.232C12.536 14.4693 11.896 16.2187 11.896 18.48V28.912C11.896 31.1733 12.5573 32.944 13.88 34.224C15.2453 35.4613 16.9093 36.08 18.872 36.08C23.352 36.08 25.592 33.776 25.592 29.168H37.048ZM87.047 46H45.063L66.055 0.495998L87.047 46ZM48.775 43.632H83.335L66.055 6.128L48.775 43.632ZM131.862 46H97.622V1.456H114.966C118.678 1.456 121.707 2.11733 124.054 3.44C126.358 4.72 128.15 6.46933 129.43 8.688C130.71 10.9067 131.35 13.36 131.35 16.048C131.35 19.376 130.326 22.3627 128.278 25.008C126.23 27.6107 123.649 29.3387 120.534 30.192L131.862 46ZM101.654 3.824L119.062 28.144C121.921 27.5467 124.289 26.1173 126.166 23.856C128.043 21.5947 128.982 18.992 128.982 16.048C128.982 13.7013 128.406 11.568 127.254 9.648C126.102 7.728 124.481 6.256 122.39 5.232C120.513 4.29333 118.059 3.824 115.03 3.824H101.654ZM99.99 5.36V28.336H116.438L99.99 5.36ZM99.99 43.632H127.382L118.038 30.64L116.054 30.704H99.99V43.632ZM161.125 47.152C154.938 47.152 150.16 45.7013 146.789 42.8C143.461 39.856 141.818 35.4613 141.861 29.616H152.293C152.25 32.048 152.976 33.904 154.469 35.184C155.962 36.464 158.053 37.104 160.741 37.104C162.96 37.104 164.709 36.7413 165.989 36.016C167.269 35.2907 167.909 34.1813 167.909 32.688C167.909 31.4507 167.248 30.5547 165.925 30C164.645 29.4453 163.365 29.0613 162.085 28.848C160.805 28.592 160.016 28.4427 159.717 28.4C156.432 27.76 153.594 26.992 151.205 26.096C148.816 25.1573 146.81 23.7493 145.189 21.872C143.568 19.9947 142.757 17.52 142.757 14.448C142.757 11.376 143.568 8.77333 145.189 6.64C146.81 4.464 148.965 2.84267 151.653 1.776C154.384 0.709332 157.349 0.175999 160.549 0.175999C164.432 0.175999 167.781 0.901332 170.597 2.352C173.456 3.80267 175.696 6 177.317 8.944C178.128 10.352 178.618 11.7173 178.789 13.04C178.96 14.32 179.045 15.5787 179.045 16.816H168.613C168.613 14.512 167.994 12.8267 166.757 11.76C165.52 10.6507 163.6 10.096 160.997 10.096C158.906 10.096 157.285 10.4587 156.133 11.184C154.981 11.9093 154.405 12.8907 154.405 14.128C154.405 15.4933 155.173 16.496 156.709 17.136C158.245 17.776 160.186 18.352 162.533 18.864C166.373 19.632 169.36 20.3787 171.493 21.104C173.669 21.7867 175.546 23.024 177.125 24.816C178.704 26.608 179.493 29.1253 179.493 32.368C179.493 35.44 178.64 38.0853 176.933 40.304C175.226 42.5227 172.965 44.2293 170.149 45.424C167.376 46.576 164.368 47.152 161.125 47.152ZM192.18 1.456H224.628V12.72H203.828V18.352H221.108V29.04H203.828V34.736H224.628V46H192.18V1.456ZM273.987 46H239.747V1.456H257.091C260.803 1.456 263.832 2.11733 266.179 3.44C268.483 4.72 270.275 6.46933 271.555 8.688C272.835 10.9067 273.475 13.36 273.475 16.048C273.475 19.376 272.451 22.3627 270.403 25.008C268.355 27.6107 265.774 29.3387 262.659 30.192L273.987 46ZM243.779 3.824L261.187 28.144C264.046 27.5467 266.414 26.1173 268.291 23.856C270.168 21.5947 271.107 18.992 271.107 16.048C271.107 13.7013 270.531 11.568 269.379 9.648C268.227 7.728 266.606 6.256 264.515 5.232C262.638 4.29333 260.184 3.824 257.155 3.824H243.779ZM242.115 5.36V28.336H258.563L242.115 5.36ZM242.115 43.632H269.507L260.163 30.64L258.179 30.704H242.115V43.632ZM321.362 46H287.122V1.456H304.466C308.178 1.456 311.207 2.11733 313.554 3.44C315.858 4.72 317.65 6.46933 318.93 8.688C320.21 10.9067 320.85 13.36 320.85 16.048C320.85 19.376 319.826 22.3627 317.778 25.008C315.73 27.6107 313.149 29.3387 310.034 30.192L321.362 46ZM291.154 3.824L308.562 28.144C311.421 27.5467 313.789 26.1173 315.666 23.856C317.543 21.5947 318.482 18.992 318.482 16.048C318.482 13.7013 317.906 11.568 316.754 9.648C315.602 7.728 313.981 6.256 311.89 5.232C310.013 4.29333 307.559 3.824 304.53 3.824H291.154ZM289.49 5.36V28.336H305.938L289.49 5.36ZM289.49 43.632H316.882L307.538 30.64L305.554 30.704H289.49V43.632ZM371.297 46H329.313L350.305 0.495998L371.297 46ZM333.025 43.632H367.585L350.305 6.128L333.025 43.632Z" fill="#5941BB" fill-opacity="0.24"/>
</svg>
